<?xml version="1.0" encoding="UTF-8" standalone="no"?>
<svg viewBox="0 0 64 64" version="1.1" xmlns="http://www.w3.org/2000/svg">
<g fill="#ff8df8">
    <rect width="6" height="58" x="0" y="2" ry="3"/>
    <rect width="6" height="42" x="29" y="2" ry="3"/>
    <rect width="6" height="30" x="58" y="19.5"/>
    <path d="M 46.5 2 A 17.5 17.5 0 0 0 29 19.5 L 35 19.5 A 11.5 11.5 0 0 1 46.5 8.5 A 11.5 11.5 0 0 1 58 19.5 L 64 19.5 A 17.5 17.5 0 0 0 46.5 2 z "/>
    <path d="M 0 27.5 A 17.5 17.5 0 0 0 35 27.5 H 29 A 11.5 11.5 0 0 1 6 27.5 H 0 z"/>
    <path stroke="#ff8df8" fill-opacity="0" stroke-width="6" stroke-linecap="round" d="M 51.5 59 A 9.5 9.5 0 0 0 61 49.5"/>
</g>
</svg>