<?xml version="1.0" encoding="UTF-8" standalone="no"?>
<svg
   viewBox="0 0 64 64"
   version="1.1"
   id="svg1455"
   sodipodi:docname="logo.project.svg"
   inkscape:version="1.1.1 (3bf5ae0d25, 2021-09-20)"
   inkscape:export-filename="./logo-64x64.png"
   inkscape:export-xdpi="96"
   inkscape:export-ydpi="96"
   xmlns:inkscape="http://www.inkscape.org/namespaces/inkscape"
   xmlns:sodipodi="http://sodipodi.sourceforge.net/DTD/sodipodi-0.dtd"
   xmlns="http://www.w3.org/2000/svg"
   xmlns:svg="http://www.w3.org/2000/svg">
  <defs
     id="defs1459" />
  <sodipodi:namedview
     id="namedview1457"
     pagecolor="#505050"
     bordercolor="#eeeeee"
     borderopacity="1"
     inkscape:pageshadow="0"
     inkscape:pageopacity="0"
     inkscape:pagecheckerboard="0"
     showgrid="false"
     inkscape:zoom="8"
     inkscape:cx="33.0625"
     inkscape:cy="36.1875"
     inkscape:window-width="1600"
     inkscape:window-height="868"
     inkscape:window-x="0"
     inkscape:window-y="0"
     inkscape:window-maximized="1"
     inkscape:current-layer="g1453" />
  <g
     fill="#ff8df8"
     id="g1453">
    <rect
       width="6"
       height="58"
       x="0"
       y="2"
       ry="3"
       id="rect1439" />
    <rect
       width="6"
       height="42"
       x="29"
       y="2"
       ry="3"
       id="rect1441" />
    <rect
       width="6"
       height="30.200001"
       x="58"
       y="19.4"
       id="rect1443"
       style="stroke-width:1.00333" />
    <path
       d="M 46.5 2 A 17.5 17.5 0 0 0 29 19.5 L 35 19.5 A 11.5 11.5 0 0 1 46.5 8.5 A 11.5 11.5 0 0 1 58 19.5 L 64 19.5 A 17.5 17.5 0 0 0 46.5 2 z "
       id="path1445" />
    <path
       d="M 0 27.5 A 17.5 17.5 0 0 0 8.75 42.5 A 17.5 17.5 0 0 0 26.25 42.5 A 17.5 17.5 0 0 0 35 27.5 L 29 27.5 A 11.5 11.5 0 0 1 17.5 39 A 11.5 11.5 0 0 1 6 27.5 L 0 27.5 z "
       id="path1447" />
    <path
       d="M 58 49.5 A 6.5 6.5 0 0 1 56.1 54.1 A 6.5 6.5 0 0 1 51.5 56 L 51.5 62 A 12.5 12.5 0 0 0 64 49.5 L 58 49.5 z "
       id="path1449" />
    <circle
       cx="51.5"
       cy="59"
       r="3"
       id="circle1451" />
  </g>
</svg>
