<?xml version="1.0" encoding="UTF-8" standalone="no"?>
<svg
   viewBox="0 0 64 64"
   version="1.1"
   id="svg1455"
   sodipodi:docname="logo-circular.project.svg"
   inkscape:version="1.1.1 (3bf5ae0d25, 2021-09-20)"
   inkscape:export-filename="./logo-64x64.png"
   inkscape:export-xdpi="96"
   inkscape:export-ydpi="96"
   xmlns:inkscape="http://www.inkscape.org/namespaces/inkscape"
   xmlns:sodipodi="http://sodipodi.sourceforge.net/DTD/sodipodi-0.dtd"
   xmlns="http://www.w3.org/2000/svg"
   xmlns:svg="http://www.w3.org/2000/svg">
  <defs
     id="defs1459" />
  <sodipodi:namedview
     id="namedview1457"
     pagecolor="#505050"
     bordercolor="#eeeeee"
     borderopacity="1"
     inkscape:pageshadow="0"
     inkscape:pageopacity="0"
     inkscape:pagecheckerboard="0"
     showgrid="false"
     inkscape:zoom="5.6568543"
     inkscape:cx="25.013902"
     inkscape:cy="38.448931"
     inkscape:window-width="1600"
     inkscape:window-height="868"
     inkscape:window-x="0"
     inkscape:window-y="0"
     inkscape:window-maximized="1"
     inkscape:current-layer="g1453" />
  <g
     fill="#ff8df8"
     id="g1453">
    <rect
       width="4.3398438"
       height="41.951824"
       x="8.854167"
       y="10.300781"
       ry="2.1699219"
       id="rect1439"
       style="stroke-width:0.723307" />
    <rect
       width="4.3398438"
       height="30.378906"
       x="29.830078"
       y="10.300781"
       ry="2.1699219"
       id="rect1441"
       style="stroke-width:0.723307" />
    <rect
       width="4.3398438"
       height="22.422525"
       x="50.805988"
       y="22.597006"
       id="rect1443"
       style="stroke-width:0.735264"
       inkscape:export-filename="./rect1443.png"
       inkscape:export-xdpi="96"
       inkscape:export-ydpi="96" />
    <path
       d="M 42.487956,10.300781 A 12.657878,12.657878 0 0 0 29.830078,22.958659 h 4.339844 a 8.3180339,8.3180339 0 0 1 8.318034,-7.95638 8.3180339,8.3180339 0 0 1 8.318034,7.95638 h 4.339843 A 12.657878,12.657878 0 0 0 42.487956,10.300781 Z"
       id="path1445"
       style="stroke-width:0.723307" />
    <path
       d="m 8.8541666,28.745117 a 12.657878,12.657878 0 0 0 6.3289384,10.84961 12.657878,12.657878 0 0 0 12.657878,0 12.657878,12.657878 0 0 0 6.328939,-10.84961 h -4.339844 a 8.3180339,8.3180339 0 0 1 -8.318034,8.318034 8.3180339,8.3180339 0 0 1 -8.318034,-8.318034 z"
       id="path1447"
       style="stroke-width:0.723307" />
    <path
       d="m 50.80599,44.657878 a 4.7014974,4.7014974 0 0 1 -1.374284,3.327213 4.7014974,4.7014974 0 0 1 -3.327214,1.374284 v 4.339844 a 9.0413412,9.0413412 0 0 0 9.041341,-9.041341 z"
       id="path1449"
       style="stroke-width:0.723307" />
    <circle
       cx="46.104492"
       cy="51.529297"
       r="2.1699219"
       id="circle1451"
       style="stroke-width:0.723307" />
  </g>
</svg>
